<?xml version="1.0" standalone="no"?>
<!DOCTYPE svg PUBLIC "-//W3C//DTD SVG 20010904//EN"
 "http://www.w3.org/TR/2001/REC-SVG-20010904/DTD/svg10.dtd">
<svg version="1.0" xmlns="http://www.w3.org/2000/svg"
 width="964.000000pt" height="964.000000pt" viewBox="0 0 964.000000 964.000000"
 preserveAspectRatio="xMidYMid meet">
<metadata>
Created by potrace 1.11, written by Peter Selinger 2001-2013
</metadata>
<g transform="translate(0.000000,964.000000) scale(0.100000,-0.100000)"
fill="#000000" stroke="none">
<path d="M4733 9615 c-291 -126 -750 -792 -1425 -2065 -365 -688 -1218 -2497
-1218 -2583 0 -28 29 10 370 488 818 1144 1239 1676 1654 2090 281 280 454
409 610 457 62 19 78 20 134 10 89 -15 208 -75 332 -167 126 -94 449 -414 636
-631 295 -341 689 -850 1059 -1369 528 -740 660 -919 663 -898 7 45 -554 1251
-955 2056 -545 1094 -917 1742 -1260 2196 -170 224 -293 345 -414 406 -56 29
-134 33 -186 10z"/>
<path d="M4627 6776 c-102 -43 -173 -113 -224 -221 -25 -54 -28 -71 -28 -165
0 -97 2 -110 32 -172 41 -88 113 -160 201 -201 63 -30 74 -32 177 -32 100 0
115 3 167 28 78 38 158 114 196 184 60 113 62 263 6 377 -35 70 -117 151 -189
189 -55 28 -70 31 -170 34 -98 3 -116 1 -168 -21z"/>
<path d="M4110 5550 c0 -27 3 -50 8 -50 4 0 38 -7 75 -15 87 -18 140 -48 165
-94 46 -83 47 -102 47 -1046 0 -824 -1 -895 -18 -955 -28 -101 -89 -149 -216
-171 l-61 -11 0 -49 0 -49 675 0 675 0 0 49 0 49 -67 12 c-127 22 -182 60
-210 145 -15 44 -18 114 -21 564 l-3 513 28 -6 c58 -14 140 -48 168 -70 l30
-24 5 -489 c4 -365 9 -496 18 -518 54 -125 168 -181 294 -143 53 16 124 80
139 126 18 51 15 242 -4 322 -9 36 -41 144 -71 241 -104 331 -99 291 -103 739
l-3 395 30 17 c38 21 38 35 0 158 l-30 97 -80 17 c-44 10 -87 25 -95 33 -14
13 -18 13 -43 -3 -18 -11 -23 -13 -15 -3 9 12 1 28 -42 86 -54 71 -88 93 -142
93 -49 0 -32 -60 21 -74 12 -3 43 -33 69 -66 26 -33 51 -60 56 -60 5 0 2 -14
-6 -32 -12 -23 -17 -65 -18 -157 -1 -69 -7 -158 -15 -197 -15 -83 -8 -121 23
-134 12 -6 58 -13 102 -17 l80 -8 3 -225 c3 -288 15 -364 101 -643 82 -265 93
-318 93 -451 -1 -97 -1 -100 -30 -129 -37 -37 -112 -48 -159 -24 -60 31 -60
36 -66 552 -4 387 -7 476 -19 505 -30 70 -153 155 -265 184 l-48 12 -3 527 -2
527 -525 0 -525 0 0 -50z m1460 -537 c19 -25 21 -35 15 -93 -4 -36 -12 -71
-17 -77 -16 -20 -102 -16 -127 5 -21 16 -21 19 -8 82 20 96 30 110 77 110 30
0 43 -6 60 -27z"/>
<path d="M2090 4687 c0 -54 557 -1257 931 -2007 553 -1112 928 -1767 1282
-2238 132 -176 248 -297 353 -369 77 -52 90 -57 148 -61 68 -4 104 9 196 71
178 122 462 495 777 1022 273 457 595 1056 866 1610 546 1121 909 1908 907
1969 -1 18 -40 -34 -313 -414 -1072 -1497 -1608 -2145 -2048 -2477 -138 -104
-283 -173 -361 -173 -95 0 -225 59 -366 164 -402 301 -962 963 -1783 2111
-279 390 -579 807 -585 814 -2 2 -4 -7 -4 -22z"/>
</g>
</svg>
